PathFileType	4	(X/Y/Z)	RBDS022\RBDS022runT35.trc
DataRate	CameraRate	NumFrames	NumMarkers	Units	OrigDataRate	OrigDataStartFrame	OrigNumFrames
150.000000	150.000000	6	33	mm	150.000000	2250	4500
Frame#	Time	L.ASIS			L.Heel.Bottom			L.Heel.Lateral			L.Heel.Top			L.Iliac.Crest			L.MT1			L.MT5			L.PSIS			L.Shank.Bottom.Lateral			L.Shank.Bottom.Medial			L.Shank.Top.Lateral			L.Shank.Top.Medial			L.Thigh.Bottom.Lateral			L.Thigh.Bottom.Medial			L.Thigh.Top.Lateral			L.Thigh.Top.Medial			R.ASIS			R.ASY			R.Heel.Bottom			R.Heel.Lateral			R.Heel.Top			R.Iliac.Crest			R.MT1			R.MT5			R.PSIS			R.Shank.Bottom.Lateral			R.Shank.Bottom.Medial			R.Shank.Top.Lateral			R.Shank.Top.Medial			R.Thigh.Bottom.Lateral			R.Thigh.Bottom.Medial			R.Thigh.Top.Lateral			R.Thigh.Top.Medial			
		X1	Y1	Z1	X2	Y2	Z2	X3	Y3	Z3	X4	Y4	Z4	X5	Y5	Z5	X6	Y6	Z6	X7	Y7	Z7	X8	Y8	Z8	X9	Y9	Z9	X10	Y10	Z10	X11	Y11	Z11	X12	Y12	Z12	X13	Y13	Z13	X14	Y14	Z14	X15	Y15	Z15	X16	Y16	Z16	X17	Y17	Z17	X18	Y18	Z18	X19	Y19	Z19	X20	Y20	Z20	X21	Y21	Z21	X22	Y22	Z22	X23	Y23	Z23	X24	Y24	Z24	X25	Y25	Z25	X26	Y26	Z26	X27	Y27	Z27	X28	Y28	Z28	X29	Y29	Z29	X30	Y30	Z30	X31	Y31	Z31	X32	Y32	Z32	X33	Y33	Z33	

2251	15	2216.087870818786	930.3960005262842	890.2901531389662	1928.457200514002	35.65675137148494	999.4854001642682	1957.538500996974	60.10711542352258	953.8947176956506	1941.664281466477	80.04973952336732	1004.395179667631	2132.495390075326	1004.242114143684	853.6784183341368	2151.418568546001	38.69938310373539	1020.8279885362	2106.362035125296	39.71832278628904	909.9975049053996	2055.232335612303	963.8000516813401	983.6108647339073	2044.506434934734	162.5299898445975	931.5131834634989	2006.336046719664	188.293931835767	963.4099545717664	2071.841095052226	234.4670322128417	908.3507729682171	2037.541144271965	259.9949098666888	941.0939781982607	2195.531034938531	561.2152108420099	867.4924765325765	2130.418291322864	555.2047882681252	899.8168552798741	2171.283238055354	664.0647595601968	839.1159751885513	2110.724912328621	659.6966471778961	873.3718292435088	2234.59529971913	916.3408425854149	1126.76167172154	1974.662797538526	206.7294686436801	1084.429185560921	1850.414079140143	353.7057492148946	1062.413465551147	1881.867355993544	340.3052517585122	1108.951794133371	1893.03160653174	363.3139741632574	1059.651730847876	2186.629500268355	981.08383149163	1174.176432668831	1941.148992015017	161.4216135424371	1045.116658367159	1931.822540194606	193.5274185557511	1154.284940293892	2068.124934606863	958.1864497930279	1067.513286570528	2001.270633928574	357.2036846062061	1127.494874090974	1993.548814687357	392.946717352388	1091.506225936898	2077.857086964516	390.4111095589936	1141.968937894791	2064.699584226192	428.2180665532483	1107.056176770607	2295.675728383929	556.7623288897577	1170.267579165109	2235.093895804886	534.9514557490207	1139.407699884086	2251.618780234838	656.435190388723	1188.466630847777	2191.07480844466	632.718900348696	1166.377271876588	
2252	15.00666666666667	2216.515662301974	931.6534178510028	890.816187152045	1905.04030672704	39.15233317994303	999.6042099794699	1934.406633265898	62.9591352107788	953.8444091472202	1918.710581275805	83.450577634593	1004.178341645901	2135.264409369837	1006.708276358858	852.9432027335721	2127.615617872874	38.33500531582524	1020.920373226873	2082.709216045107	39.65466359984863	910.0822629388073	2055.374235336919	966.6311517548057	982.6345051831114	2022.984463891693	164.9358485631567	931.2114321950296	1985.227484767526	191.279734027521	963.142423083593	2051.402745797622	236.2784337210997	907.9629124441489	2017.569366876186	262.467964390275	940.7300267972412	2183.423350410409	561.5839653862281	867.4580643371835	2118.01839296558	557.9847009599199	899.5542185891263	2163.107289291116	665.330370299997	839.2867695115161	2102.399130543297	663.2046520608412	873.4783898133817	2233.635661892765	918.97293044448	1127.206190895324	1998.073711643972	197.865493271526	1084.708242432995	1865.538146101481	337.5015997833812	1065.047085962462	1898.107370498798	325.4436012922608	1111.194951208724	1907.498798538592	349.666148633484	1062.000300903169	2183.448661962784	984.0998013872651	1174.282746937381	1967.06388566192	151.0473763996491	1045.295481945672	1956.814739438915	181.5419988710483	1154.831098123786	2067.471334502576	960.8536949718991	1066.861292629362	2016.883465955257	349.0849930656789	1128.728975643262	2006.988265334672	384.5590327727533	1092.982415945102	2091.849253006798	386.0370695864852	1142.703261320467	2076.407920142319	423.2969230220559	1108.109884458704	2303.369650401532	563.6262693890988	1169.675749168044	2243.368084184387	540.0554784399095	1138.989817591	2256.534991830288	661.9371232409429	1188.141276092492	2196.572659404714	636.457809680817	1166.29811387891	
2253	15.01333333333333	2217.179979815704	933.3228502605655	891.38519022265	1881.823076704864	43.59405459177508	999.7508417743018	1911.549936522466	66.57712637070308	953.8080636278009	1896.132247203984	87.73314610795707	1003.961434223435	2138.332869591899	1009.405228531601	852.2946583252301	2103.825299571906	37.98116575252998	1020.992933987614	2059.13446793199	39.68107764802332	910.1560124931941	2055.757738807374	969.7976562136178	981.7492309051426	2001.630709205419	168.0734903682845	930.912454331963	1964.301760932816	194.8929391012983	962.9250113639049	2030.971918865503	238.8669966285565	907.5614980742911	1997.592779145582	265.629239719587	940.39334830904	2171.085347446284	562.7911978755139	867.396890541661	2105.531267779359	561.7130206655024	899.3564249802913	2154.873623741147	667.3101420871167	839.4805425952152	2094.126661843559	667.515332730512	873.6488041996488	2232.912412983481	922.1676241489305	1127.706019990182	2022.081982453716	188.87049080667	1084.933343342168	1881.397558214883	320.3492255364851	1067.255377188656	1914.923457813453	309.800049730027	1113.102492847447	1922.547348440424	335.1199136902388	1064.034560860684	2180.341973773585	987.6150239115927	1174.475558915935	1993.844176302466	140.6281923675316	1045.321309503373	1982.481965894325	169.4425482920504	1155.165717865563	2067.025955416424	963.945759390016	1066.297326030659	2032.574915386743	340.5481382500529	1129.781553870812	2020.436002166211	375.5845990726675	1094.239521113113	2105.571737325271	381.451593546231	1143.355478584048	2087.785442458736	417.9650348381836	1109.039587112281	2310.166256794957	570.8501190093509	1169.079372028026	2250.807223749234	545.7554403474551	1138.40293938788	2260.85278229448	667.8452791801	1187.8506198576	2201.517528727421	640.8457106779788	1166.028030690582	
2254	15.02	2218.075031182592	935.359385891808	891.9584323662496	1858.938508499336	49.07043522389822	999.9253156859983	1889.097298704857	71.02626466773815	953.7853875079358	1874.079774393525	92.96390599679226	1003.743773344673	2141.596705775575	1012.295635926757	851.7715810709683	2080.101849409727	37.67776033279121	1021.034087633475	2035.696645342589	39.838493964344	910.2091552233138	2056.38950785097	973.2529602198956	980.9702376762611	1980.568452807033	171.9836895688566	930.6204000033016	1943.704302098998	199.1782992552612	962.7855264815374	2010.698996514317	242.2845647793629	907.1738892436738	1977.77205294492	269.5249765760455	940.1245043026952	2158.644189498585	564.8578799161338	867.3128210064741	2093.107230384612	566.3908658147116	899.2563872186537	2146.682074960014	670.002253937459	839.6903699089542	2086.016973117412	672.6078819765866	873.8857006269417	2232.451515897029	925.8534919196309	1128.220213792639	2046.675492412964	179.8575775804519	1085.137679551555	1898.101391997865	302.3987671684135	1068.967860513393	1932.396214196457	293.5295880257069	1114.614862767903	1938.281241412234	319.7898987881691	1065.684252610507	2177.484175478625	991.5831085843465	1174.737823301159	2021.460898187557	130.3090707303965	1045.250380330482	2008.790016738557	157.3980574116393	1155.32877259773	2066.805243243089	967.4249158225065	1065.830616835199	2048.387132153525	331.6365566902705	1130.618556545452	2033.990077417805	366.054720084285	1095.230045703972	2119.046477106167	376.6260588933281	1143.908962359379	2098.912020573888	412.1826165930248	1109.81053566704	2316.062076917853	578.2567594147984	1168.481396209734	2257.373335287879	551.8818061705834	1137.674506755699	2264.590217657596	674.0180279879363	1187.586739109035	2205.894846595944	645.7513211242942	1165.587914165215	
2255	15.02666666666667	2219.198447026292	937.7132264315834	892.5100150192465	1836.537523140242	55.64306920216462	1000.117888137857	1867.19022501279	76.34581893678786	953.7672502858202	1852.717336890272	99.17899805871595	1003.514246465502	2144.975956277783	1015.36993953855	851.4034027246543	2056.507694419283	37.45431141140524	1021.029514546184	2012.45618791563	40.15453010970388	910.2288032230831	2057.273219496936	976.9523645082287	980.3017552176634	1959.928751580661	176.6765223353269	930.321867924835	1923.586490604572	204.1488235448965	962.7347871146144	1990.741344864821	246.5519787604945	906.8139989415999	1958.271504559943	274.1692175947002	939.9484731113984	2146.227402166191	567.7815384198251	867.2033848160643	2080.892641997038	571.9895697281426	899.2788525031586	2138.62494214126	673.3877852403396	839.9047791827638	2078.171886048768	678.4388331544409	874.1908065201878	2232.267186798174	929.9632749455507	1128.719241910663	2071.838863889147	170.9325404003261	1085.352928612499	1915.751377589006	283.8081025520317	1070.126589205717	1950.598356541222	276.787482384368	1115.680567688869	1954.797249137195	303.8032273547932	1066.886758033411	2175.025407843088	995.9730044421345	1175.049090138775	2049.886948626925	120.2190897578282	1045.143321063452	2035.695437119476	145.5623003317469	1155.366625695691	2066.821071810747	971.2478583605739	1065.461910828871	2064.36307800724	322.3954113346796	1131.210192043152	2047.750897746199	356.005826787767	1095.909926950493	2132.301842407004	371.534525630817	1144.344750924235	2109.87336551	405.9188079829846	1110.385147041678	2321.07261013645	585.6789301102043	1167.878735661202	2263.044608555869	558.2656866753837	1136.838111640853	2267.775175285439	680.3199360926038	1187.336816457217	2209.699118648715	651.0402668315469	1165.006748614881	
2256	15.03333333333333	2220.548399576314	940.3306104057356	893.0269698120235	1814.785653689539	63.344554763606	1000.310213682115	1845.978576822036	82.54996499087753	953.7374517955299	1832.218162293262	106.3827270067818	1003.253548690178	2148.417892307409	1018.635602415227	851.2087538985112	2033.111641988256	37.33259401397719	1020.964445706252	1989.471825925257	40.6489293559886	910.2015703363348	2058.408556965172	980.8517172522913	979.739864464568	1939.848844347025	182.1294312835898	929.9902602886023	1904.10099437615	209.7834470362694	962.7673100255915	1971.258752572054	251.6568431732816	906.4830058801887	1939.253943821222	279.5427247626663	939.8744510886781	2133.959887305681	571.5356828973208	867.0604457485337	2069.025614548819	578.4502821884491	899.4386490605293	2130.782543634152	677.4306137439473	840.10764501326	2070.681430071803	684.9422040965777	874.5651959283989	2232.361537337604	934.4329815644393	1129.184533883175	2097.551126160199	162.1967686004321	1085.604436948929	1934.438582162014	264.7417726104208	1070.69146730514	1969.593672087413	259.7276058951301	1116.260630729561	1972.181478046055	287.298729729197	1067.592342639375	2173.078908128973	1000.760393680297	1175.387839983127	2079.093099985198	110.4758211471844	1045.058297828115	2063.147210621924	134.0752658428229	1155.327006750369	2067.080375367012	975.3649417409833	1065.185533856107	2080.543954082333	312.8743230140277	1131.533029878281	2061.815521729317	345.482306265199	1096.241887603387	2145.370943532766	366.1576440777179	1144.642796139749	2120.756848003668	399.1556008674883	1110.725423281303	2325.224738676381	592.9619612810121	1167.262796703118	2267.809556796255	564.7425588487847	1135.93179863149	2270.438211682887	686.6235564374631	1187.083843961827	2212.929007716945	656.5777166796115	1164.31831694637	
